<svg width="39" height="52" viewBox="0 0 39 52" fill="none" xmlns="http://www.w3.org/2000/svg">
<path d="M12.4245 7.27135C12.4325 7.25824 12.4404 7.24382 12.4484 7.22808C12.459 7.2058 12.4716 7.20448 12.4861 7.22415C12.506 7.25299 12.508 7.29167 12.4921 7.34018C11.7071 9.75119 12.4603 12.4592 15.4531 12.5968C22.2336 12.9095 20.8207 3.04716 17.6172 0.0914074C17.6081 0.0827125 17.6023 0.071088 17.601 0.058598C17.5997 0.0461081 17.6029 0.0335612 17.6101 0.0231859C17.6172 0.0128105 17.6278 0.005278 17.6401 0.00192633C17.6523 -0.00142534 17.6653 -0.000379572 17.6769 0.00487831C22.0727 2.1445 25.9578 6.27626 25.4272 11.5211C25.1927 13.8338 24.3554 16.0593 22.9153 18.1976C22.1601 19.3185 20.8386 20.8662 20.2603 22.1366C19.4548 23.9065 19.368 25.7918 20 27.7925C20.0071 27.8142 20.0079 27.8375 20.0024 27.8597C19.9968 27.8819 19.985 27.9021 19.9684 27.9182C19.9517 27.9343 19.9308 27.9456 19.908 27.9508C19.8851 27.956 19.8613 27.955 19.839 27.9478C16.1685 26.7463 11.9357 24.3805 10.4333 20.6086C8.79778 16.5083 10.2842 10.9252 12.4245 7.27135Z" fill="#FF8E6F"/>
<path d="M24.7062 18.2504C25.7336 16.3468 26.8385 13.2829 26.4987 11.0901C26.4972 11.0744 26.5011 11.0586 26.5097 11.0453C26.5184 11.032 26.5313 11.0219 26.5464 11.0167C26.5615 11.0115 26.5779 11.0115 26.593 11.0166C26.6081 11.0217 26.6211 11.0317 26.6298 11.0449C28.8993 14.9132 30.5666 19.6113 27.075 23.4284C26.6974 23.8388 26.0131 24.39 25.0221 25.0823C23.7609 25.9633 22.5135 26.8646 21.2801 27.7863C21.2298 27.8243 21.196 27.8132 21.1788 27.7529C19.889 23.3655 22.8918 21.6152 24.7062 18.2504Z" fill="#FFA271"/>
<path d="M13.6585 33.825H11.5798C11.5501 33.825 11.5261 33.8488 11.5261 33.8781V44.6549C11.5261 44.6842 11.5501 44.708 11.5798 44.708H13.6585C13.6881 44.708 13.7121 44.6842 13.7121 44.6549V33.8781C13.7121 33.8488 13.6881 33.825 13.6585 33.825Z" fill="#FF8070"/>
<path d="M2.52383 38.3501H8.84729C8.88418 38.3501 8.91957 38.3646 8.94566 38.3904C8.97174 38.4162 8.9864 38.4512 8.9864 38.4877L8.99634 40.0374C8.9966 40.0558 8.99314 40.0741 8.98614 40.0911C8.97914 40.1082 8.96876 40.1237 8.95561 40.1367C8.94245 40.1497 8.92679 40.16 8.90955 40.1669C8.89231 40.1738 8.87384 40.1773 8.85524 40.177L2.51985 40.1593C2.50158 40.1593 2.48349 40.1629 2.46662 40.1698C2.44974 40.1767 2.4344 40.1868 2.42149 40.1996C2.40857 40.2124 2.39832 40.2276 2.39133 40.2443C2.38434 40.261 2.38074 40.2789 2.38074 40.297L2.39267 44.5585C2.39267 44.5768 2.38901 44.5948 2.38189 44.6116C2.37478 44.6285 2.36435 44.6437 2.35122 44.6566C2.33809 44.6694 2.32252 44.6795 2.30542 44.6863C2.28831 44.6931 2.27001 44.6964 2.25157 44.6962L0.335851 44.6844C0.299303 44.6839 0.264429 44.6691 0.238769 44.6434C0.21311 44.6176 0.198727 44.5829 0.19873 44.5467V33.9626C0.19873 33.9261 0.213386 33.8911 0.239474 33.8653C0.265562 33.8395 0.300945 33.825 0.337839 33.825L10.2443 33.8289C10.2626 33.8289 10.2807 33.8325 10.2976 33.8394C10.3144 33.8463 10.3298 33.8565 10.3427 33.8692C10.3556 33.882 10.3659 33.8972 10.3729 33.9139C10.3798 33.9306 10.3834 33.9485 10.3834 33.9666L10.3815 35.4592C10.3815 35.4957 10.3668 35.5307 10.3407 35.5565C10.3146 35.5824 10.2792 35.5969 10.2423 35.5969H2.52383C2.50556 35.5969 2.48747 35.6004 2.47059 35.6073C2.45371 35.6143 2.43838 35.6244 2.42546 35.6372C2.41254 35.65 2.4023 35.6651 2.39531 35.6818C2.38832 35.6985 2.38472 35.7164 2.38472 35.7345V38.2124C2.38472 38.2305 2.38832 38.2484 2.39531 38.2651C2.4023 38.2818 2.41254 38.297 2.42546 38.3097C2.43838 38.3225 2.45371 38.3327 2.47059 38.3396C2.48747 38.3465 2.50556 38.3501 2.52383 38.3501Z" fill="#FF676F"/>
<path d="M31.1146 43.0698H38.8927C38.9212 43.0698 38.9485 43.081 38.9686 43.1009C38.9887 43.1208 39 43.1478 39 43.176V44.7827C39 44.8109 38.9887 44.8379 38.9686 44.8578C38.9485 44.8777 38.9212 44.8889 38.8927 44.8889H28.9226C28.8942 44.8889 28.8669 44.8777 28.8467 44.8578C28.8266 44.8379 28.8153 44.8109 28.8153 44.7827V34.1278C28.8153 34.0997 28.8266 34.0727 28.8467 34.0527C28.8669 34.0328 28.8942 34.0216 28.9226 34.0216L38.8927 34.0236C38.9212 34.0236 38.9485 34.0348 38.9686 34.0547C38.9887 34.0746 39 34.1016 39 34.1298L38.998 35.6873C38.998 35.7013 38.9953 35.7151 38.9899 35.728C38.9845 35.7408 38.9766 35.7526 38.9666 35.7624C38.9566 35.7723 38.9448 35.7801 38.9318 35.7854C38.9188 35.7908 38.9048 35.7935 38.8907 35.7935H31.1086C31.0801 35.7935 31.0528 35.8047 31.0327 35.8246C31.0126 35.8445 31.0013 35.8715 31.0013 35.8997V38.3914C31.0013 38.4195 31.0126 38.4465 31.0327 38.4664C31.0528 38.4864 31.0801 38.4975 31.1086 38.4975H37.8494C37.8779 38.4975 37.9052 38.5087 37.9253 38.5286C37.9454 38.5486 37.9567 38.5756 37.9567 38.6037V39.9705C37.9567 39.9987 37.9454 40.0257 37.9253 40.0456C37.9052 40.0655 37.8779 40.0767 37.8494 40.0767L31.0967 40.0688C31.0682 40.0688 31.0409 40.08 31.0208 40.0999C31.0007 40.1199 30.9894 40.1469 30.9894 40.175L31.0073 42.9636C31.0073 42.9918 31.0186 43.0188 31.0387 43.0387C31.0588 43.0586 31.0861 43.0698 31.1146 43.0698Z" fill="#FEB374"/>
<path d="M24.4175 34.4514C27.15 35.7473 27.14 39.8535 24.4055 41.1554C24.3393 41.1869 24.3241 41.2347 24.3598 41.299L26.2915 44.7582C26.2994 44.7722 26.3034 44.788 26.3031 44.804C26.3028 44.82 26.2982 44.8358 26.2898 44.8496C26.2814 44.8635 26.2694 44.8751 26.2551 44.8832C26.2407 44.8913 26.2245 44.8956 26.208 44.8958H23.9346C23.8498 44.8958 23.7875 44.8585 23.7478 44.7837L22.0407 41.5369C22.0116 41.4819 21.9659 41.4543 21.9036 41.4543H18.5749C18.5545 41.4543 18.5343 41.4584 18.5154 41.4662C18.4966 41.4741 18.4796 41.4856 18.4653 41.5001C18.451 41.5145 18.4398 41.5317 18.4324 41.5505C18.4249 41.5694 18.4214 41.5895 18.4219 41.6097L18.4954 44.7149C18.496 44.7385 18.4917 44.7619 18.483 44.7838C18.4742 44.8058 18.4611 44.8257 18.4445 44.8426C18.4278 44.8595 18.4079 44.8728 18.386 44.882C18.364 44.8911 18.3404 44.8958 18.3166 44.8958H16.4207C16.3373 44.8958 16.2955 44.8545 16.2955 44.7719V34.1721C16.2955 34.0869 16.3386 34.0436 16.4247 34.0423C18.4835 34.0135 20.5257 34.0148 22.5514 34.0463C23.2523 34.0581 23.8743 34.1931 24.4175 34.4514ZM18.4557 35.9519L18.4756 39.5586C18.4761 39.5942 18.4908 39.6282 18.5164 39.6532C18.5421 39.6783 18.5767 39.6923 18.6127 39.6923L22.1281 39.6746C22.4007 39.6732 22.6703 39.6229 22.9216 39.5265C23.1729 39.4302 23.401 39.2897 23.5927 39.1131C23.7845 38.9365 23.9362 38.7272 24.0391 38.4973C24.1421 38.2673 24.1944 38.0212 24.1929 37.7729V37.6746C24.19 37.1735 23.9687 36.6943 23.5778 36.3421C23.1869 35.9899 22.6583 35.7937 22.1083 35.7965L18.5928 35.8142C18.5746 35.8142 18.5566 35.8178 18.5399 35.8247C18.5231 35.8317 18.5079 35.8418 18.4951 35.8546C18.4824 35.8675 18.4723 35.8826 18.4655 35.8993C18.4588 35.916 18.4554 35.9339 18.4557 35.9519Z" fill="#FF8E6F"/>
<path d="M9.34613 46.8648C10.7273 46.9691 11.2459 48.617 10.4789 49.618C9.8807 50.3988 8.38429 50.2021 7.51387 50.1942C7.45302 50.1937 7.39433 50.2165 7.3502 50.258C7.30607 50.2995 7.27996 50.3563 7.27739 50.4165L7.22373 51.6869C7.22219 51.7223 7.20686 51.7559 7.18094 51.7804C7.15502 51.805 7.12051 51.8186 7.08462 51.8186H6.37517C6.28243 51.8186 6.2354 51.7721 6.23408 51.679L6.16055 46.9514C6.16 46.9283 6.16853 46.906 6.18441 46.8888C6.20029 46.8716 6.22231 46.8609 6.246 46.8589C7.27938 46.7842 8.31275 46.7862 9.34613 46.8648ZM7.26348 47.8461L7.2595 49.207C7.2595 49.2588 7.28016 49.3086 7.317 49.3454C7.35384 49.3822 7.40388 49.4032 7.45624 49.4037L8.72411 49.4076C8.86459 49.4082 9.00379 49.3885 9.13377 49.3496C9.26374 49.3107 9.38193 49.2533 9.48159 49.1808C9.58125 49.1083 9.66043 49.022 9.71458 48.927C9.76874 48.832 9.79683 48.73 9.79724 48.6269V48.442C9.79806 48.234 9.68633 48.0341 9.48659 47.8863C9.28686 47.7384 9.01547 47.6546 8.73206 47.6534L7.46419 47.6495C7.43793 47.6492 7.41187 47.6541 7.38753 47.6639C7.36319 47.6737 7.34105 47.6881 7.32238 47.7064C7.30372 47.7247 7.2889 47.7464 7.27879 47.7704C7.26868 47.7944 7.26348 47.8202 7.26348 47.8461Z" fill="#FF676F"/>
<path d="M16.8957 49.2977C16.8933 49.9564 16.5978 50.5872 16.074 51.0512C15.5503 51.5152 14.8412 51.7744 14.1028 51.7719C13.3644 51.7693 12.6571 51.5052 12.1367 51.0376C11.6162 50.57 11.3251 49.9372 11.3274 49.2785C11.3297 48.6197 11.6253 47.989 12.1491 47.525C12.6728 47.061 13.3819 46.8018 14.1203 46.8043C14.8587 46.8069 15.5659 47.071 16.0864 47.5386C16.6069 48.0062 16.898 48.639 16.8957 49.2977ZM15.8417 49.3371C15.8477 49.1363 15.8088 48.9361 15.7271 48.748C15.6454 48.5599 15.5226 48.3875 15.3656 48.2408C15.2087 48.094 15.0207 47.9758 14.8123 47.8927C14.604 47.8097 14.3794 47.7635 14.1514 47.7568C13.9235 47.7501 13.6965 47.783 13.4836 47.8537C13.2706 47.9244 13.0759 48.0314 12.9104 48.1687C12.7449 48.306 12.612 48.4708 12.5192 48.6538C12.4264 48.8368 12.3755 49.0343 12.3695 49.2351C12.3634 49.436 12.4024 49.6362 12.4841 49.8243C12.5657 50.0124 12.6886 50.1847 12.8455 50.3315C13.0025 50.4782 13.1905 50.5965 13.3988 50.6795C13.6072 50.7626 13.8317 50.8088 14.0597 50.8155C14.2877 50.8221 14.5146 50.7892 14.7276 50.7186C14.9405 50.6479 15.1353 50.5409 15.3008 50.4036C15.4662 50.2663 15.5992 50.1015 15.692 49.9185C15.7848 49.7355 15.8357 49.538 15.8417 49.3371Z" fill="#FF8070"/>
<path d="M20.3178 47.9921V51.8151C20.3178 51.8366 20.3135 51.8578 20.3052 51.8776C20.2969 51.8974 20.2848 51.9154 20.2695 51.9306C20.2541 51.9457 20.236 51.9577 20.216 51.9659C20.1959 51.9741 20.1745 51.9784 20.1528 51.9784L19.4891 51.9823C19.4457 51.9823 19.404 51.9654 19.3732 51.9352C19.3423 51.905 19.3247 51.864 19.3241 51.821V47.9666C19.3241 47.9233 19.3068 47.8818 19.2758 47.8511C19.2449 47.8205 19.2029 47.8033 19.1592 47.8033H17.6529C17.6091 47.8033 17.5672 47.7861 17.5362 47.7555C17.5053 47.7249 17.4879 47.6834 17.4879 47.6401V47.1642C17.4879 47.1209 17.5053 47.0794 17.5362 47.0488C17.5672 47.0182 17.6091 47.001 17.6529 47.001L21.991 47.0187C22.0348 47.0187 22.0767 47.0359 22.1077 47.0665C22.1386 47.0971 22.156 47.1386 22.156 47.1819V47.6932C22.156 47.715 22.1516 47.7365 22.1431 47.7566C22.1345 47.7767 22.122 47.7948 22.1063 47.81C22.0905 47.8252 22.0719 47.8372 22.0514 47.8452C22.0309 47.8531 22.0091 47.857 21.9871 47.8564L20.4867 47.8289C20.4647 47.8284 20.4428 47.8322 20.4223 47.8402C20.4019 47.8481 20.3832 47.8601 20.3675 47.8753C20.3517 47.8905 20.3392 47.9087 20.3307 47.9287C20.3222 47.9488 20.3178 47.9704 20.3178 47.9921Z" fill="#FFB455"/>
<path d="M25.9 47.9567L25.894 51.8486C25.894 51.8877 25.8783 51.9252 25.8504 51.9529C25.8224 51.9805 25.7845 51.9961 25.745 51.9961L25.0395 52C25 52 24.9621 51.9845 24.9341 51.9568C24.9062 51.9291 24.8905 51.8916 24.8905 51.8525V47.9567C24.8905 47.937 24.8865 47.9175 24.8787 47.8994C24.871 47.8812 24.8597 47.8648 24.8454 47.851C24.8311 47.8373 24.8142 47.8265 24.7957 47.8193C24.7772 47.8121 24.7573 47.8087 24.7374 47.8092L23.2053 47.8407C23.1854 47.8412 23.1656 47.8378 23.147 47.8306C23.1285 47.8234 23.1116 47.8127 23.0973 47.7989C23.083 47.7852 23.0717 47.7687 23.064 47.7506C23.0562 47.7324 23.0522 47.7129 23.0522 47.6932V47.1583C23.0522 47.1192 23.0679 47.0817 23.0959 47.054C23.1239 47.0263 23.1618 47.0108 23.2013 47.0108L27.5733 47.001C27.593 47.001 27.6126 47.0049 27.6308 47.0124C27.649 47.0199 27.6655 47.031 27.6794 47.0449C27.6932 47.0588 27.7042 47.0753 27.7115 47.0934C27.7189 47.1115 27.7226 47.1309 27.7223 47.1504L27.7203 47.6932C27.7203 47.7129 27.7163 47.7324 27.7086 47.7506C27.7009 47.7687 27.6895 47.7852 27.6753 47.7989C27.661 47.8127 27.6441 47.8234 27.6256 47.8306C27.607 47.8378 27.5872 47.8412 27.5673 47.8407L26.051 47.8112C26.0314 47.8109 26.012 47.8145 25.9938 47.8217C25.9756 47.8288 25.9591 47.8395 25.945 47.853C25.931 47.8665 25.9198 47.8826 25.9121 47.9004C25.9044 47.9182 25.9003 47.9374 25.9 47.9567Z" fill="#FFB455"/>
<path d="M29.4135 49.703L29.4095 50.7925C29.4095 50.8306 29.4248 50.8671 29.452 50.894C29.4792 50.921 29.5161 50.9361 29.5546 50.9361H32.8912C32.9102 50.9361 32.9291 50.9398 32.9467 50.947C32.9643 50.9542 32.9803 50.9648 32.9938 50.9781C33.0072 50.9915 33.0179 51.0073 33.0252 51.0247C33.0325 51.0421 33.0362 51.0608 33.0362 51.0796V51.6283C33.0362 51.6472 33.0325 51.6658 33.0252 51.6832C33.0179 51.7007 33.0072 51.7165 32.9938 51.7298C32.9803 51.7432 32.9643 51.7537 32.9467 51.7609C32.9291 51.7682 32.9102 51.7719 32.8912 51.7719H28.5629C28.5244 51.7719 28.4875 51.7567 28.4603 51.7298C28.4331 51.7029 28.4178 51.6664 28.4178 51.6283V46.9479C28.4178 46.9098 28.4331 46.8733 28.4603 46.8464C28.4875 46.8194 28.5244 46.8043 28.5629 46.8043L32.8951 46.8083C32.9333 46.8088 32.9697 46.8241 32.9964 46.851C33.0232 46.8779 33.0382 46.9141 33.0382 46.9518L33.0362 47.4592C33.0362 47.4782 33.0324 47.497 33.025 47.5146C33.0176 47.5321 33.0067 47.548 32.9931 47.5614C32.9794 47.5748 32.9631 47.5853 32.9453 47.5924C32.9275 47.5995 32.9084 47.603 32.8892 47.6027L29.5585 47.587C29.5201 47.587 29.4832 47.6021 29.456 47.6291C29.4287 47.656 29.4135 47.6925 29.4135 47.7306V48.6785C29.4135 48.7165 29.4287 48.7531 29.456 48.78C29.4832 48.8069 29.5201 48.822 29.5585 48.822H32.446C32.4652 48.822 32.4843 48.8258 32.502 48.8331C32.5197 48.8405 32.5358 48.8512 32.5493 48.8648C32.5628 48.8783 32.5735 48.8944 32.5806 48.912C32.5878 48.9297 32.5914 48.9485 32.5911 48.9675L32.5891 49.4179C32.5886 49.4556 32.5731 49.4916 32.5459 49.5181C32.5188 49.5446 32.4822 49.5595 32.444 49.5595H29.5585C29.5395 49.5595 29.5206 49.5632 29.503 49.5704C29.4854 49.5776 29.4694 49.5882 29.456 49.6015C29.4425 49.6149 29.4318 49.6307 29.4245 49.6481C29.4172 49.6655 29.4135 49.6842 29.4135 49.703Z" fill="#FFA271"/>
<path d="M3.47391 49.6999C2.54586 49.6744 0.407569 49.8533 0.0558237 48.7107C-0.570164 46.6812 4.25689 45.9733 5.11937 48.0795C5.13684 48.1231 5.14362 48.1702 5.13913 48.2169C5.13464 48.2637 5.11902 48.3086 5.09356 48.348C5.0681 48.3874 5.03354 48.4202 4.99275 48.4436C4.95196 48.467 4.90612 48.4804 4.85903 48.4826C4.60202 48.4957 4.37149 48.4026 4.16747 48.2034C3.44808 47.5033 2.60283 47.3479 1.63172 47.7373C1.4171 47.8238 1.27401 47.9798 1.20247 48.2053C0.92227 49.0923 2.9612 48.8917 3.43616 48.872C3.81638 48.8576 4.18005 48.9271 4.52716 49.0805C5.68573 49.5937 5.48303 50.9349 4.396 51.3892C3.3825 51.814 0.0518494 52.0165 0.0140914 50.284C0.0127666 50.2211 0.0419128 50.1804 0.101531 50.1621C0.545352 50.027 0.85669 50.046 1.03554 50.2191C1.8278 50.9861 2.7214 51.1598 3.71636 50.7402C4.40594 50.4492 4.18933 49.7196 3.47391 49.6999Z" fill="#FF676F"/>
<path d="M37.3466 46.8324C39.0756 46.9149 39.2922 49.2178 37.9607 50.0339C37.9334 50.0506 37.9137 50.0773 37.9059 50.1081C37.8981 50.139 37.9028 50.1716 37.919 50.1991L38.7059 51.5914C38.7171 51.611 38.7229 51.633 38.7227 51.6554C38.7225 51.6778 38.7163 51.6998 38.7049 51.7191C38.6934 51.7385 38.677 51.7545 38.6573 51.7655C38.6376 51.7766 38.6153 51.7824 38.5927 51.7822H37.7699C37.7317 51.7823 37.6943 51.772 37.6617 51.7526C37.6291 51.7332 37.6026 51.7053 37.5851 51.6721L36.9134 50.4017C36.8829 50.3436 36.8367 50.2949 36.7799 50.2609C36.7232 50.2269 36.658 50.209 36.5915 50.209H35.4031C35.3748 50.2089 35.3467 50.2146 35.3206 50.2255C35.2945 50.2365 35.2709 50.2526 35.2513 50.2728C35.2316 50.293 35.2163 50.3169 35.2061 50.3431C35.196 50.3693 35.1914 50.3972 35.1925 50.4253L35.2362 51.6249C35.2401 51.7298 35.1891 51.7822 35.0832 51.7822H34.3041C34.2207 51.7822 34.1796 51.7409 34.1809 51.6583L34.2207 46.9779C34.222 46.8848 34.2697 46.8369 34.3638 46.8343C35.5813 46.795 36.5756 46.7943 37.3466 46.8324ZM35.1746 47.8137L35.1785 49.1706C35.1785 49.2254 35.2005 49.2779 35.2397 49.3166C35.2788 49.3553 35.3319 49.3771 35.3872 49.3771L36.8618 49.3751C37.1121 49.3746 37.352 49.2846 37.5286 49.1249C37.7053 48.9652 37.8042 48.7489 37.8037 48.5236V48.4528C37.8035 48.3412 37.7788 48.2308 37.7311 48.1278C37.6835 48.0248 37.6137 47.9313 37.5259 47.8526C37.438 47.7739 37.3338 47.7116 37.2192 47.6691C37.1046 47.6267 36.9818 47.6049 36.8578 47.6052L35.3832 47.6072C35.3279 47.6072 35.2748 47.6289 35.2357 47.6677C35.1966 47.7064 35.1746 47.7589 35.1746 47.8137Z" fill="#FEB374"/>
<path d="M12.3509 7.27135C12.3589 7.25824 12.3668 7.24382 12.3748 7.22808C12.3854 7.2058 12.398 7.20448 12.4125 7.22415C12.4324 7.25299 12.4344 7.29167 12.4185 7.34018C11.6335 9.75119 12.3867 12.4592 15.3795 12.5968C22.16 12.9095 20.7471 3.04716 17.5436 0.0914074C17.5345 0.0827125 17.5287 0.071088 17.5274 0.058598C17.5261 0.0461081 17.5293 0.0335612 17.5365 0.0231859C17.5436 0.0128105 17.5542 0.005278 17.5665 0.00192633C17.5787 -0.00142534 17.5917 -0.000379572 17.6033 0.00487831C21.9991 2.1445 25.8842 6.27626 25.3536 11.5211C25.1191 13.8338 24.2818 16.0593 22.8417 18.1976C22.0865 19.3185 20.765 20.8662 20.1867 22.1366C19.3812 23.9065 19.2944 25.7918 19.9264 27.7925C19.9335 27.8142 19.9343 27.8375 19.9288 27.8597C19.9232 27.8819 19.9114 27.9021 19.8947 27.9182C19.8781 27.9343 19.8572 27.9456 19.8344 27.9508C19.8115 27.956 19.7877 27.955 19.7654 27.9478C16.0949 26.7463 11.8621 24.3805 10.3597 20.6086C8.72417 16.5083 10.2106 10.9252 12.3509 7.27135Z" fill="#FFB455"/>
<path d="M24.7732 18.054C25.8006 16.1504 26.9055 13.0865 26.5657 10.8938C26.5642 10.878 26.5681 10.8622 26.5767 10.8489C26.5854 10.8356 26.5983 10.8256 26.6134 10.8203C26.6285 10.8151 26.6449 10.8151 26.66 10.8202C26.6751 10.8253 26.6881 10.8353 26.6968 10.8485C28.9663 14.7168 30.6336 19.4149 27.142 23.232C26.7644 23.6424 26.0801 24.1937 25.0892 24.8859C23.8279 25.7669 22.5806 26.6683 21.3471 27.5899C21.2968 27.6279 21.263 27.6168 21.2458 27.5565C19.9561 23.1691 22.9588 21.4188 24.7732 18.054Z" fill="#FFB455"/>
<path d="M13.6068 33.8652H11.5281C11.4985 33.8652 11.4745 33.889 11.4745 33.9183V44.6951C11.4745 44.7245 11.4985 44.7482 11.5281 44.7482H13.6068C13.6365 44.7482 13.6605 44.7245 13.6605 44.6951V33.9183C13.6605 33.889 13.6365 33.8652 13.6068 33.8652Z" fill="#FFB455"/>
<path d="M2.3251 38.41H8.64856C8.68545 38.41 8.72084 38.4245 8.74693 38.4503C8.77301 38.4761 8.78767 38.5111 8.78767 38.5476L8.7976 40.0973C8.79787 40.1157 8.79441 40.134 8.78741 40.151C8.78041 40.1681 8.77003 40.1836 8.75688 40.1966C8.74372 40.2096 8.72806 40.2199 8.71082 40.2268C8.69358 40.2338 8.67511 40.2372 8.65651 40.2369L2.32112 40.2192C2.30285 40.2192 2.28476 40.2228 2.26789 40.2297C2.25101 40.2366 2.23567 40.2468 2.22276 40.2596C2.20984 40.2723 2.19959 40.2875 2.1926 40.3042C2.18561 40.3209 2.18201 40.3388 2.18201 40.3569L2.19394 44.6184C2.19394 44.6367 2.19028 44.6548 2.18316 44.6716C2.17605 44.6884 2.16562 44.7037 2.15249 44.7165C2.13936 44.7293 2.12379 44.7394 2.10669 44.7462C2.08958 44.753 2.07128 44.7564 2.05284 44.7561L0.137121 44.7443C0.100572 44.7438 0.0656984 44.7291 0.0400388 44.7033C0.0143791 44.6775 -3.72926e-06 44.6428 7.25307e-10 44.6066V34.0226C7.25308e-10 33.9861 0.0146559 33.9511 0.0407438 33.9252C0.0668316 33.8994 0.102215 33.8849 0.139108 33.8849L10.0456 33.8888C10.0639 33.8888 10.082 33.8924 10.0988 33.8993C10.1157 33.9062 10.1311 33.9164 10.144 33.9292C10.1569 33.942 10.1671 33.9571 10.1741 33.9738C10.1811 33.9905 10.1847 34.0084 10.1847 34.0265L10.1827 35.5191C10.1827 35.5556 10.1681 35.5907 10.142 35.6165C10.1159 35.6423 10.0805 35.6568 10.0436 35.6568H2.3251C2.30683 35.6568 2.28874 35.6604 2.27186 35.6673C2.25498 35.6742 2.23965 35.6843 2.22673 35.6971C2.21381 35.7099 2.20357 35.7251 2.19658 35.7418C2.18959 35.7585 2.18599 35.7764 2.18599 35.7945V38.2723C2.18599 38.2904 2.18959 38.3083 2.19658 38.325C2.20357 38.3417 2.21381 38.3569 2.22673 38.3697C2.23965 38.3825 2.25498 38.3926 2.27186 38.3995C2.28874 38.4064 2.30683 38.41 2.3251 38.41Z" fill="#FFB455"/>
<path d="M30.9158 43.0698H38.694C38.7224 43.0698 38.7497 43.081 38.7699 43.1009C38.79 43.1208 38.8013 43.1478 38.8013 43.176V44.7827C38.8013 44.8109 38.79 44.8379 38.7699 44.8578C38.7497 44.8777 38.7224 44.8889 38.694 44.8889H28.7239C28.6954 44.8889 28.6681 44.8777 28.648 44.8578C28.6279 44.8379 28.6166 44.8109 28.6166 44.7827V34.1278C28.6166 34.0997 28.6279 34.0727 28.648 34.0527C28.6681 34.0328 28.6954 34.0216 28.7239 34.0216L38.694 34.0236C38.7224 34.0236 38.7497 34.0348 38.7699 34.0547C38.79 34.0746 38.8013 34.1016 38.8013 34.1298L38.7993 35.6873C38.7993 35.7013 38.7965 35.7151 38.7911 35.728C38.7857 35.7408 38.7778 35.7526 38.7679 35.7624C38.7579 35.7723 38.7461 35.7801 38.7331 35.7854C38.72 35.7908 38.7061 35.7935 38.692 35.7935H30.9099C30.8814 35.7935 30.8541 35.8047 30.834 35.8246C30.8139 35.8445 30.8026 35.8715 30.8026 35.8997V38.3914C30.8026 38.4195 30.8139 38.4465 30.834 38.4664C30.8541 38.4864 30.8814 38.4975 30.9099 38.4975H37.6507C37.6791 38.4975 37.7064 38.5087 37.7265 38.5286C37.7467 38.5486 37.758 38.5756 37.758 38.6037V39.9705C37.758 39.9987 37.7467 40.0257 37.7265 40.0456C37.7064 40.0655 37.6791 40.0767 37.6507 40.0767L30.898 40.0688C30.8695 40.0688 30.8422 40.08 30.8221 40.0999C30.8019 40.1199 30.7906 40.1469 30.7906 40.175L30.8085 42.9636C30.8085 42.9918 30.8198 43.0188 30.84 43.0387C30.8601 43.0586 30.8874 43.0698 30.9158 43.0698Z" fill="#FFB455"/>
<path d="M24.4671 34.3077C27.1996 35.6037 27.1897 39.7099 24.4552 41.0118C24.389 41.0432 24.3737 41.0911 24.4095 41.1553L26.3411 44.6145C26.349 44.6285 26.353 44.6443 26.3527 44.6604C26.3524 44.6764 26.3479 44.6921 26.3394 44.706C26.331 44.7199 26.3191 44.7314 26.3047 44.7395C26.2904 44.7476 26.2742 44.752 26.2577 44.7522H23.9842C23.8995 44.7522 23.8372 44.7148 23.7974 44.6401L22.0904 41.3933C22.0612 41.3382 22.0155 41.3107 21.9533 41.3107H18.6246C18.6042 41.3107 18.5839 41.3147 18.5651 41.3226C18.5463 41.3304 18.5292 41.3419 18.515 41.3564C18.5007 41.3709 18.4895 41.3881 18.4821 41.4069C18.4746 41.4257 18.4711 41.4458 18.4716 41.466L18.5451 44.5712C18.5456 44.5948 18.5414 44.6183 18.5327 44.6402C18.5239 44.6621 18.5108 44.6821 18.4942 44.699C18.4775 44.7158 18.4576 44.7292 18.4356 44.7383C18.4137 44.7475 18.3901 44.7522 18.3663 44.7522H16.4704C16.3869 44.7522 16.3452 44.7109 16.3452 44.6283V34.0285C16.3452 33.9433 16.3883 33.9 16.4744 33.8987C18.5332 33.8698 20.5754 33.8712 22.6011 33.9026C23.302 33.9144 23.924 34.0495 24.4671 34.3077ZM18.5054 35.8082L18.5252 39.4149C18.5258 39.4506 18.5404 39.4846 18.5661 39.5096C18.5918 39.5346 18.6263 39.5486 18.6624 39.5486L22.1778 39.5309C22.4504 39.5295 22.72 39.4792 22.9713 39.3829C23.2226 39.2865 23.4506 39.1461 23.6424 38.9695C23.8341 38.7929 23.9858 38.5836 24.0888 38.3536C24.1918 38.1237 24.2441 37.8775 24.2426 37.6293V37.5309C24.2396 37.0299 24.0184 36.5506 23.6275 36.1984C23.2366 35.8463 22.708 35.65 22.158 35.6529L18.6425 35.6706C18.6243 35.6706 18.6063 35.6741 18.5896 35.6811C18.5728 35.688 18.5576 35.6982 18.5448 35.711C18.5321 35.7238 18.522 35.739 18.5152 35.7557C18.5085 35.7724 18.5051 35.7902 18.5054 35.8082Z" fill="#FFB455"/>
<path d="M9.28851 46.878C10.6697 46.9823 11.1883 48.6303 10.4212 49.6312C9.82308 50.412 8.32667 50.2153 7.45625 50.2074C7.3954 50.2069 7.33671 50.2297 7.29258 50.2712C7.24846 50.3127 7.22235 50.3695 7.21977 50.4297L7.16611 51.7001C7.16458 51.7355 7.14925 51.7691 7.12332 51.7936C7.0974 51.8182 7.06289 51.8319 7.02701 51.8318H6.31755C6.22482 51.8318 6.17778 51.7853 6.17646 51.6922L6.10293 46.9646C6.10238 46.9416 6.11092 46.9192 6.1268 46.902C6.14267 46.8848 6.1647 46.8742 6.18838 46.8721C7.22176 46.7974 8.25513 46.7994 9.28851 46.878ZM7.20586 47.8594L7.20189 49.2202C7.20188 49.272 7.22255 49.3218 7.25939 49.3586C7.29623 49.3954 7.34626 49.4164 7.39863 49.4169L8.6665 49.4208C8.80697 49.4214 8.94618 49.4017 9.07615 49.3628C9.20612 49.3239 9.32432 49.2665 9.42398 49.194C9.52364 49.1215 9.60281 49.0353 9.65697 48.9402C9.71113 48.8452 9.73921 48.7432 9.73962 48.6401V48.4552C9.74044 48.2472 9.62871 48.0473 9.42898 47.8995C9.22924 47.7516 8.95785 47.6679 8.67445 47.6666L7.40657 47.6627C7.38031 47.6624 7.35425 47.6673 7.32991 47.6771C7.30557 47.6869 7.28343 47.7013 7.26477 47.7196C7.2461 47.7379 7.23129 47.7597 7.22118 47.7836C7.21106 47.8076 7.20586 47.8334 7.20586 47.8594Z" fill="#FFB455"/>
<path d="M16.9891 49.3203C16.9867 49.979 16.6912 50.6098 16.1674 51.0738C15.6436 51.5378 14.9346 51.797 14.1962 51.7944C13.4578 51.7919 12.7505 51.5278 12.23 51.0602C11.7096 50.5926 11.4185 49.9598 11.4208 49.3011C11.4231 48.6423 11.7187 48.0116 12.2424 47.5476C12.7662 47.0836 13.4753 46.8244 14.2137 46.8269C14.9521 46.8295 15.6593 47.0936 16.1798 47.5612C16.7003 48.0288 16.9914 48.6616 16.9891 49.3203ZM15.9351 49.3597C15.9411 49.1589 15.9022 48.9587 15.8205 48.7706C15.7388 48.5825 15.616 48.4101 15.459 48.2634C15.3021 48.1166 15.114 47.9984 14.9057 47.9153C14.6974 47.8323 14.4728 47.7861 14.2448 47.7794C14.0168 47.7727 13.7899 47.8056 13.577 47.8763C13.364 47.947 13.1692 48.054 13.0038 48.1913C12.8383 48.3285 12.7054 48.4934 12.6126 48.6764C12.5197 48.8593 12.4689 49.0569 12.4628 49.2577C12.4568 49.4586 12.4958 49.6587 12.5774 49.8469C12.6591 50.035 12.782 50.2073 12.9389 50.3541C13.0959 50.5008 13.2839 50.6191 13.4922 50.7021C13.7005 50.7852 13.9251 50.8313 14.1531 50.838C14.3811 50.8447 14.608 50.8118 14.821 50.7411C15.0339 50.6705 15.2287 50.5634 15.3941 50.4262C15.5596 50.2889 15.6926 50.1241 15.7854 49.9411C15.8782 49.7581 15.929 49.5605 15.9351 49.3597Z" fill="#FFB455"/>
<path d="M29.4631 49.763L29.4592 50.8525C29.4592 50.8905 29.4745 50.9271 29.5017 50.954C29.5289 50.9809 29.5658 50.996 29.6042 50.996H32.9409C32.9599 50.996 32.9788 50.9997 32.9964 51.007C33.014 51.0142 33.03 51.0247 33.0434 51.0381C33.0569 51.0514 33.0676 51.0672 33.0749 51.0847C33.0822 51.1021 33.0859 51.1207 33.0859 51.1396V51.6883C33.0859 51.7071 33.0822 51.7258 33.0749 51.7432C33.0676 51.7606 33.0569 51.7764 33.0434 51.7898C33.03 51.8031 33.014 51.8137 32.9964 51.8209C32.9788 51.8281 32.9599 51.8318 32.9409 51.8318H28.6126C28.5741 51.8318 28.5372 51.8167 28.51 51.7898C28.4828 51.7629 28.4675 51.7263 28.4675 51.6883V47.0078C28.4675 46.9698 28.4828 46.9332 28.51 46.9063C28.5372 46.8794 28.5741 46.8643 28.6126 46.8643L32.9448 46.8682C32.983 46.8687 33.0193 46.8841 33.0461 46.9109C33.0729 46.9378 33.0879 46.974 33.0879 47.0118L33.0859 47.5191C33.0859 47.5382 33.0821 47.557 33.0747 47.5745C33.0673 47.5921 33.0564 47.608 33.0427 47.6214C33.0291 47.6347 33.0128 47.6452 32.995 47.6523C32.9772 47.6594 32.9581 47.663 32.9389 47.6627L29.6082 47.647C29.5697 47.647 29.5328 47.6621 29.5056 47.689C29.4784 47.7159 29.4631 47.7525 29.4631 47.7905V48.7384C29.4631 48.7765 29.4784 48.813 29.5056 48.8399C29.5328 48.8668 29.5697 48.882 29.6082 48.882H32.4957C32.5149 48.882 32.534 48.8857 32.5517 48.8931C32.5694 48.9004 32.5855 48.9112 32.599 48.9247C32.6125 48.9383 32.6231 48.9543 32.6303 48.972C32.6375 48.9896 32.641 49.0085 32.6408 49.0275L32.6388 49.4778C32.6383 49.5156 32.6228 49.5516 32.5956 49.5781C32.5685 49.6046 32.5319 49.6194 32.4937 49.6194H29.6082C29.5892 49.6194 29.5703 49.6231 29.5527 49.6304C29.5351 49.6376 29.5191 49.6481 29.5056 49.6615C29.4922 49.6748 29.4815 49.6906 29.4742 49.7081C29.4669 49.7255 29.4631 49.7441 29.4631 49.763Z" fill="#FFB455"/>
<path d="M3.51346 49.7512C2.58541 49.7256 0.44712 49.9046 0.0953745 48.762C-0.530613 46.7325 4.29644 46.0245 5.15892 48.1307C5.17639 48.1744 5.18317 48.2215 5.17868 48.2682C5.17419 48.3149 5.15857 48.3599 5.13311 48.3993C5.10765 48.4387 5.07309 48.4715 5.0323 48.4949C4.99151 48.5183 4.94567 48.5317 4.89859 48.5339C4.64157 48.547 4.41104 48.4539 4.20702 48.2546C3.48763 47.5545 2.64238 47.3992 1.67127 47.7886C1.45665 47.8751 1.31357 48.0311 1.24202 48.2566C0.96182 49.1435 3.00075 48.9429 3.47571 48.9233C3.85594 48.9088 4.2196 48.9783 4.56671 49.1317C5.72529 49.645 5.52258 50.9862 4.43555 51.4405C3.42205 51.8653 0.0914002 52.0678 0.0536422 50.3353C0.0523174 50.2723 0.0814636 50.2317 0.141081 50.2133C0.584903 50.0783 0.896241 50.0973 1.07509 50.2704C1.86735 51.0373 2.76095 51.211 3.75591 50.7915C4.44549 50.5005 4.22888 49.7709 3.51346 49.7512Z" fill="#FFB455"/>
<path d="M37.3466 46.882C39.0756 46.9646 39.2922 49.2674 37.9607 50.0835C37.9334 50.1003 37.9137 50.1269 37.9059 50.1577C37.8981 50.1886 37.9028 50.2213 37.919 50.2487L38.7059 51.6411C38.7171 51.6606 38.7229 51.6826 38.7227 51.7051C38.7225 51.7275 38.7163 51.7494 38.7049 51.7688C38.6934 51.7881 38.677 51.8041 38.6573 51.8152C38.6376 51.8262 38.6153 51.832 38.5927 51.8318H37.7699C37.7317 51.8319 37.6943 51.8216 37.6617 51.8022C37.6291 51.7828 37.6026 51.7549 37.5851 51.7217L36.9134 50.4513C36.8829 50.3932 36.8367 50.3445 36.7799 50.3105C36.7232 50.2766 36.658 50.2586 36.5915 50.2586H35.4031C35.3748 50.2586 35.3467 50.2642 35.3206 50.2752C35.2945 50.2861 35.2709 50.3022 35.2513 50.3224C35.2316 50.3426 35.2163 50.3665 35.2061 50.3927C35.196 50.4189 35.1914 50.4469 35.1925 50.4749L35.2362 51.6745C35.2401 51.7794 35.1891 51.8318 35.0832 51.8318H34.3041C34.2207 51.8318 34.1796 51.7905 34.1809 51.7079L34.2207 47.0275C34.222 46.9344 34.2697 46.8866 34.3638 46.8839C35.5813 46.8446 36.5756 46.844 37.3466 46.882ZM35.1746 47.8633L35.1785 49.2202C35.1785 49.275 35.2005 49.3275 35.2397 49.3662C35.2788 49.405 35.3319 49.4267 35.3872 49.4267L36.8618 49.4247C37.1121 49.4242 37.352 49.3342 37.5286 49.1745C37.7053 49.0148 37.8042 48.7985 37.8037 48.5732V48.5024C37.8035 48.3909 37.7788 48.2804 37.7311 48.1774C37.6835 48.0745 37.6137 47.9809 37.5259 47.9022C37.438 47.8235 37.3338 47.7612 37.2192 47.7187C37.1046 47.6763 36.9818 47.6546 36.8578 47.6548L35.3832 47.6568C35.3279 47.6568 35.2748 47.6786 35.2357 47.7173C35.1966 47.756 35.1746 47.8085 35.1746 47.8633Z" fill="#FFB455"/>
</svg>
